PathFileType	4	(X/Y/Z)	2014001\dynamic\2014001_C1_04.trc
DataRate	CameraRate	NumFrames	NumMarkers	Units	OrigDataRate	OrigDataStartFrame	OrigNumFrames
100.000000	100.000000	4	52	mm	100.000000	142	569
Frame#	Time	L_IAS			L_IPS			R_IPS			R_IAS			L_FTC			L_FLE			L_FME			L_FAX			L_TTC			L_FAL			L_TAM			L_FCC			L_FM1			L_FM2			L_FM5			R_FTC			R_FLE			R_FME			R_FAX			R_TTC			R_FAL			R_TAM			R_FCC			R_FM1			R_FM2			R_FM5			CV7			TV10			SXS			SJN			L_SIA			L_SRS			L_SAA			L_SAE			L_HLE			L_HME			L_UOA			L_RSP			L_UHE			L_HM2			L_HM5			R_SIA			R_SRS			R_SAA			R_SAE			R_HLE			R_HME			R_UOA			R_RSP			R_UHE			R_HM2			R_HM5			
		X1	Y1	Z1	X2	Y2	Z2	X3	Y3	Z3	X4	Y4	Z4	X5	Y5	Z5	X6	Y6	Z6	X7	Y7	Z7	X8	Y8	Z8	X9	Y9	Z9	X10	Y10	Z10	X11	Y11	Z11	X12	Y12	Z12	X13	Y13	Z13	X14	Y14	Z14	X15	Y15	Z15	X16	Y16	Z16	X17	Y17	Z17	X18	Y18	Z18	X19	Y19	Z19	X20	Y20	Z20	X21	Y21	Z21	X22	Y22	Z22	X23	Y23	Z23	X24	Y24	Z24	X25	Y25	Z25	X26	Y26	Z26	X27	Y27	Z27	X28	Y28	Z28	X29	Y29	Z29	X30	Y30	Z30	X31	Y31	Z31	X32	Y32	Z32	X33	Y33	Z33	X34	Y34	Z34	X35	Y35	Z35	X36	Y36	Z36	X37	Y37	Z37	X38	Y38	Z38	X39	Y39	Z39	X40	Y40	Z40	X41	Y41	Z41	X42	Y42	Z42	X43	Y43	Z43	X44	Y44	Z44	X45	Y45	Z45	X46	Y46	Z46	X47	Y47	Z47	X48	Y48	Z48	X49	Y49	Z49	X50	Y50	Z50	X51	Y51	Z51	X52	Y52	Z52	

143	1.42	445.4305419921877	867.8285522460942	254.4885711669923	371.7446899414064	907.172485351563	75.70569610595706	281.7106323242189	909.8486938476567	72.36470031738284	205.6037139892579	895.3906860351567	252.2598876953126	490.2033691406252	778.9230957031255	176.7053527832032	419.6226196289065	428.8226623535159	163.2531280517579	307.2632751464845	431.3376464843752	188.3219757080079	416.2702941894534	368.4854125976564	138.5308685302735	368.5565490722657	348.8738708496095	198.2374420166017	337.4171142578126	60.30718612670901	74.9548034667969	252.414520263672	75.57754516601565	102.2415924072266	287.9236145019532	24.42274284362794	31.81478118896486	273.0150146484376	26.26692581176759	215.3877868652345	335.7398681640626	36.17281341552736	220.9492950439454	379.7131958007814	23.61009979248048	162.3183288574219	139.2246704101563	798.7988891601567	172.2928619384766	134.2065582275391	464.643981933594	292.1209411621095	250.7215423583986	444.911315917969	320.4724121093751	125.8775634765626	403.1166687011721	273.5300292968751	167.7167205810547	391.4470520019534	343.9733276367189	146.5795440673829	91.81697082519534	225.4334259033204	224.2707519531251	98.06297302246099	275.952117919922	204.3496551513673	41.26914978027345	193.6448364257814	183.6483917236329	47.49295043945314	375.2886047363282	128.5744018554688	63.27644348144534	363.3236694335939	97.60684204101568	47.11531066894533	309.5914611816407	353.9869079589845	1381.177734375	106.0132675170899	347.2596130371095	1148.889282226563	36.8916473388672	350.3544921875001	1147.493041992188	266.888397216797	354.3679504394532	1311.070556640625	230.9738159179689	443.0198059082034	1185.36767578125	33.95724487304689	439.623718261719	1316.579345703125	58.35921096801761	547.3721923828127	1311.023193359375	131.4404907226563	533.2539062500002	1319.990234375	173.1297149658204	604.8579711914065	1036.803955078125	124.9392242431641	529.0178222656252	1007.984375	94.91450500488284	579.1667480468752	1005.520446777344	89.32840728759768	557.2231445312502	805.4563598632817	212.7305145263673	626.0593261718752	801.5435180664067	170.3806457519532	562.6080322265627	723.345886230469	242.9294281005861	627.5242309570315	723.7256469726565	163.9173736572266	235.5430908203126	1197.457275390625	30.29551506042482	262.7007751464845	1319.258422851563	63.2004203796387	160.2373962402344	1317.111206054688	140.1304779052735	171.8953247070313	1319.426025390625	189.3886871337891	83.58712005615237	1026.107299804688	119.2366638183594	159.9050750732422	1005.273376464844	99.29341125488287	114.2589569091797	999.5924682617192	91.84790039062503	96.13848876953131	819.1008911132817	229.3541107177736	36.81606292724611	818.680053710938	171.0430908203126	71.72821044921878	735.4668579101565	261.6670227050782	31.26217651367189	738.9624633789065	167.2354278564454	
144	1.43	445.833923339844	867.7184448242192	255.8401641845704	371.7799377441407	906.8225708007817	77.10718536376956	281.750701904297	909.4482421875005	73.92607879638675	205.9546661376954	895.213256835938	254.0145874023439	490.4321289062502	778.8408203125005	178.0874176025391	419.8302001953127	428.6644592285159	164.4931335449219	307.485809326172	431.1435546875002	189.8254699707032	416.4543762207034	368.4119262695314	139.669662475586	368.8258361816407	348.5940856933595	199.350067138672	337.3880310058595	60.44132232666018	75.01313018798831	252.4232330322267	75.70191192626956	102.4637527465821	287.9098205566407	24.6285972595215	31.88684463500978	273.038299560547	26.30487442016603	215.4317169189454	335.8011169433595	36.17186737060548	220.9806976318361	379.7520751953126	23.57618713378907	162.3328857421876	139.5221099853516	798.4121704101567	174.5327758789063	134.8841857910157	464.5349731445315	294.8794555664064	251.3387908935548	445.1244201660159	322.8276367187501	126.4496078491212	402.634704589844	277.2154541015626	168.5467529296876	392.0777587890627	347.5714416503907	147.0254058837891	90.46842193603518	234.461395263672	224.8839416503907	97.56707000732428	284.674774169922	204.7807464599611	39.46355056762697	203.2949066162111	184.4733276367188	48.51759719848636	384.9300842285159	129.4193267822266	64.10587310791018	372.8801269531251	98.25833129882818	47.07838439941408	319.414520263672	353.8301696777345	1380.9189453125	107.0223999023438	347.1851196289064	1148.54296875	38.0319175720215	350.4385681152345	1147.341186523438	268.0390930175782	354.3338928222657	1310.877075195313	232.0093078613282	443.0085449218752	1185.097778320313	35.0698585510254	439.5169677734377	1316.324462890625	59.34749603271487	547.3150024414065	1310.870727539063	132.4386138916016	533.1687011718752	1319.86669921875	174.1021270751954	604.938659667969	1036.611938476563	126.4972915649415	529.1081542968752	1007.690368652344	96.55496978759771	579.2615966796877	1005.1796875	90.97557067871097	557.3006591796877	805.5851440429692	215.2410583496095	626.0872192382815	801.505981445313	172.8480224609376	562.6336669921877	723.6312255859377	245.7293548583986	627.534118652344	723.664245605469	166.7119903564454	235.4119110107423	1197.03857421875	31.52310752868654	262.5473632812501	1318.896850585938	64.26551818847659	160.1362915039063	1316.724487304688	141.3048553466797	171.8565826416016	1319.100463867188	190.5361328125001	83.69541168212893	1025.501708984375	121.1656646728516	160.0104522705079	1004.689331054688	101.2170867919922	114.3511352539063	998.8508300781255	93.86562347412112	96.93254852294928	819.1242675781255	233.0191497802736	37.4340057373047	818.2598266601567	174.3148651123047	72.636589050293	735.7098388671877	265.4241333007814	32.03989028930665	738.5149536132815	171.0344390869141	
145	1.44	446.231628417969	867.617309570313	257.1941528320314	371.796844482422	906.4762573242192	78.50834655761722	281.7725219726564	909.048461914063	75.496696472168	206.3014068603517	895.0341796875005	255.7833404541017	490.648132324219	778.7709960937505	179.4834747314454	420.0351562500002	428.5120849609377	165.7367706298829	307.7080688476564	430.9556884765627	191.3323211669922	416.640075683594	368.3494873046876	140.8164367675782	369.096160888672	348.3211669921876	200.4631805419923	337.3614196777345	60.58812332153323	75.0822448730469	252.4339141845704	75.82447814941409	102.6929473876954	287.8886108398439	24.84712219238283	31.95894241333009	273.0480346679689	26.32997894287111	215.4544067382814	335.8620910644532	36.16936111450197	221.0054473876954	379.7842102050782	23.5433521270752	162.3529205322266	139.8165740966797	798.0217895507817	176.8103637695313	135.5580596923829	464.4269104003909	297.6055603027345	251.9630584716798	445.3179626464846	325.154998779297	127.0284881591797	402.1600036621096	280.8675537109376	169.3826751708985	392.7175292968752	351.1280517578126	147.4701690673829	89.23307800292972	243.4184417724611	225.5205078125001	97.14401245117193	293.325653076172	205.2115325927736	37.77607727050783	212.8908233642579	185.3076477050782	49.62060928344729	394.454284667969	130.2750091552735	65.0160827636719	382.3294677734376	98.91013336181646	47.14759445190431	329.1364135742189	353.654998779297	1380.65966796875	108.0473403930665	347.0767822265626	1148.196533203125	39.1802101135254	350.5188293457032	1147.186157226563	269.1950988769532	354.2939758300782	1310.688598632813	233.0514526367189	442.9659118652346	1184.825073242188	36.17687225341798	439.3856201171877	1316.065673828125	60.33184051513675	547.240173339844	1310.710815429688	133.4220733642579	533.0677490234377	1319.73388671875	175.0637359619141	604.9940185546877	1036.412109375	128.0549316406251	529.1743164062502	1007.387817382813	98.19666290283209	579.332702636719	1004.821716308594	92.62477111816409	557.3393554687502	805.731567382813	217.8197479248048	626.065856933594	801.4662475585942	175.3611450195313	562.602478027344	723.9404296875002	248.5938415527345	627.4873657226565	723.600036621094	169.5717468261719	235.2449340820314	1196.627563476563	32.77382278442384	262.3749084472657	1318.541015625	65.3317794799805	160.0194702148438	1316.35205078125	142.5100860595704	171.8072509765626	1318.7880859375	191.7136535644532	83.7724533081055	1024.916748046875	123.120719909668	160.0785369873047	1004.121826171875	103.1578369140626	114.4064025878907	998.1276245117192	95.908317565918	97.71994781494146	819.1947631835942	236.6529083251954	38.03811264038087	817.8695678710942	177.6436309814454	73.54701995849612	735.9971923828127	269.2364196777345	32.80764007568361	738.100036621094	174.8999481201172	
146	1.45	446.6207580566409	867.5245971679692	258.5541076660157	371.7954101562501	906.1340942382817	79.90959930419925	281.7765197753907	908.6497192382817	77.07627868652347	206.6400909423829	894.8543090820317	257.563690185547	490.853210449219	778.7086791992192	180.8914794921876	420.2350158691409	428.3673400878909	166.9779052734376	307.9307861328126	430.7749023437502	192.8388824462892	416.8247070312502	368.2984924316407	141.9640502929688	369.3657836914064	348.0566711425782	201.5708770751954	337.3372497558595	60.74624252319339	75.16043090820315	252.447479248047	75.94162750244143	102.9240036010743	287.8591613769532	25.0782985687256	32.03170776367189	273.0459594726564	26.34587287902833	215.4558105468751	335.9227600097657	36.16532516479494	221.0261993408204	379.808563232422	23.51225662231446	162.3759307861329	140.1025543212891	797.635131835938	179.1060485839844	136.2260437011719	464.3240051269534	300.3042907714845	252.5955963134767	445.4975585937502	327.4639282226564	127.6156311035157	401.696472167969	284.4852294921876	170.221420288086	393.3674316406252	354.6452026367189	147.9161834716797	88.11415100097659	252.2880249023439	226.171356201172	96.80043792724615	301.8885498046876	205.6461486816407	36.20781326293947	222.4187622070314	186.1453094482422	50.79925918579104	403.8472900390627	131.1330566406251	66.00276184082034	391.653747558594	99.56216430664068	47.32085418701173	338.7406005859376	353.4598999023439	1380.399047851563	109.0904846191407	346.9345703125001	1147.849853515625	40.33675765991212	350.5950622558595	1147.029663085938	270.3570861816407	354.2481689453126	1310.506225585938	234.0995178222657	442.889831542969	1184.548828125	37.27769470214845	439.2285766601565	1315.802734375	61.311393737793	547.1472167968752	1310.5439453125	134.387924194336	532.9514770507815	1319.592163085938	176.0125732421876	605.0232543945315	1036.204345703125	129.6091461181641	529.214538574219	1007.075744628907	99.8378524780274	579.3784179687502	1004.447387695313	94.27371215820315	557.3392333984377	805.8977661132817	220.4615936279298	625.9957275390627	801.424194335938	177.9132995605469	562.5156860351565	724.2719726562502	251.514862060547	627.384216308594	723.5330810546877	172.4883880615235	235.0418090820314	1196.223754882813	34.04761886596681	262.1841735839845	1318.192016601563	66.39511871337893	159.8864746093751	1315.99365234375	143.7469329833985	171.7471771240235	1318.488525390625	192.9221649169923	83.81616210937503	1024.354125976563	125.1000976562501	160.1054992675782	1003.571044921875	105.111915588379	114.4209899902344	997.4241333007817	97.97378540039068	98.49237823486334	819.3119506835942	240.2068939208986	38.625301361084	817.5100097656255	181.0230712890626	74.45888519287112	736.326599121094	273.093475341797	33.56093597412111	737.7188110351565	178.8235168457032	
